<svg width="236" height="44" viewBox="0 0 236 44" fill="none" xmlns="http://www.w3.org/2000/svg">
<path d="M20.1373 35.9018C21.0626 35.9018 21.9407 35.8193 22.767 35.6352C23.6053 35.4506 24.3492 35.1611 24.9767 34.7309C25.6042 34.3187 26.1232 33.7525 26.502 33.0311C26.8804 32.3174 27.0613 31.3912 27.0613 30.2699C27.0613 28.0753 26.4439 26.5161 25.2158 25.5697C23.985 24.6366 22.3438 24.1726 20.3251 24.1726H10.1286V35.9018H20.1373ZM19.6197 17.7703C21.2806 17.7703 22.6557 17.3759 23.7459 16.5748C24.8246 15.7892 25.3486 14.4869 25.3486 12.7014C25.3486 11.712 25.1741 10.8916 24.8246 10.2558C24.4641 9.62 23.985 9.12209 23.3804 8.77442C22.7803 8.41209 22.1024 8.16107 21.3145 8.02686C20.5431 7.87479 19.7328 7.81661 18.9033 7.81661H10.1286V17.7703H19.6197ZM20.8326 0.561371C22.8692 0.561371 24.7078 0.737725 26.3889 1.10188C28.0595 1.45597 29.4859 2.04778 30.691 2.85993C31.8783 3.67024 32.8068 4.74897 33.4715 6.10758C34.1201 7.44696 34.4471 9.12255 34.4471 11.1055C34.4471 13.2501 33.9598 15.0407 32.9859 16.4721C32.0057 17.9018 30.5651 19.0744 28.6403 19.9855C31.2618 20.739 33.2026 22.0669 34.4902 23.9528C35.7842 25.8514 36.4168 28.1257 36.4168 30.7898C36.4168 32.9505 36.0027 34.8088 35.1777 36.3731C34.3432 37.9566 33.2081 39.2406 31.8087 40.2304C30.3979 41.2299 28.7777 41.9628 26.9629 42.4401C25.1461 42.9198 23.2746 43.1607 21.3956 43.1565H0.750732V0.560913L20.8326 0.561371ZM59.5201 19.5563C58.5123 18.4418 56.8079 17.8385 54.7278 17.8385C53.3738 17.8385 52.2529 18.0667 51.3569 18.5307C50.4802 18.9887 49.7606 19.5595 49.2123 20.2305C48.6654 20.9131 48.2916 21.6327 48.0754 22.4027C47.8583 23.1534 47.7291 23.8341 47.6888 24.436H61.4723C61.2703 22.2749 60.531 20.6785 59.5201 19.5563ZM49.7862 35.7598C51.0546 36.9984 52.8887 37.6227 55.2647 37.6227C56.9728 37.6227 58.4496 37.1907 59.6882 36.3287C60.9158 35.4698 61.6633 34.5496 61.9528 33.5954H69.4124C68.2136 37.3075 66.3942 39.9584 63.911 41.5533C61.4595 43.1561 58.467 43.9549 54.9816 43.9549C52.552 43.9549 50.3657 43.5606 48.4038 42.7869C46.4415 42.0027 44.8016 40.9029 43.4219 39.4701C42.0775 38.0304 41.0345 36.3287 40.2906 34.3315C39.5545 32.3435 39.1821 30.1421 39.1821 27.7565C39.1821 25.4502 39.5692 23.2954 40.3213 21.3047C41.0909 19.3071 42.1536 17.5829 43.5511 16.1368C44.9537 14.683 46.6146 13.536 48.549 12.6982C50.4852 11.8618 52.6184 11.4431 54.9816 11.4431C57.5907 11.4431 59.876 11.9447 61.8346 12.9684C63.7869 13.9762 65.3865 15.3426 66.6448 17.0543C67.9017 18.7634 68.7963 20.7175 69.3556 22.9075C69.9089 25.0956 70.1045 27.3813 69.9446 29.7752H47.6883C47.6883 32.2125 48.5128 34.5207 49.7862 35.7598ZM81.9765 0.561371V16.6219H82.1708C83.2463 14.835 84.6067 13.536 86.2791 12.7307C87.9483 11.9186 89.5772 11.5173 91.1634 11.5173C93.4262 11.5173 95.28 11.815 96.7275 12.4279C98.1768 13.0523 99.3233 13.8969 100.163 14.9949C100.986 16.0888 101.568 17.422 101.91 18.9947C102.244 20.5636 102.418 22.2946 102.418 24.2029V43.1565H93.9049V25.741C93.9049 23.202 93.5087 21.2932 92.7195 20.0446C91.9288 18.7941 90.5249 18.1665 88.4998 18.1665C86.2095 18.1665 84.5531 18.8605 83.5275 20.2305C82.4832 21.6002 81.9765 23.8552 81.9765 26.9929V43.1565H73.4671V0.560913L81.9765 0.561371ZM125.139 28.8288C124.612 29.0033 124.028 29.1508 123.426 29.2786C122.782 29.3983 122.134 29.4976 121.484 29.5764C120.809 29.6548 120.136 29.7524 119.467 29.8691C118.833 29.9932 118.199 30.1485 117.595 30.351C116.981 30.5516 116.442 30.8182 115.999 31.1549C115.542 31.4957 115.165 31.9329 114.895 32.4356C114.623 32.95 114.477 33.6179 114.477 34.4076C114.477 35.1611 114.623 35.7969 114.894 36.319C115.175 36.8367 115.54 37.2411 116.02 37.5402C116.499 37.8394 117.06 38.0496 117.685 38.1664C118.319 38.2924 118.974 38.3396 119.645 38.3396C121.311 38.3396 122.595 38.0629 123.51 37.5082C124.421 36.9498 125.107 36.2838 125.535 35.5074C125.972 34.7309 126.236 33.9481 126.322 33.1589C126.433 32.3646 126.484 31.7242 126.484 31.2437V28.0753C126.116 28.4005 125.684 28.6511 125.139 28.8288ZM108.465 16.8276C109.313 15.5272 110.451 14.4422 111.791 13.6587C113.143 12.8571 114.654 12.2923 116.352 11.9543C118.03 11.6109 119.74 11.4396 121.453 11.4431C122.998 11.4431 124.56 11.5498 126.17 11.7697C127.753 11.9883 129.201 12.4169 130.514 13.0555C131.826 13.6977 132.895 14.5762 133.723 15.7228C134.562 16.8404 134.988 18.3543 134.988 20.2305V36.3044C134.988 37.7019 135.072 39.0299 135.221 40.3014C135.389 41.584 135.824 42.5459 136.235 43.1772L127.582 43.1561C127.328 42.7873 127.118 42.2097 127.019 41.7068C126.917 41.2061 126.847 40.6993 126.81 40.1897C125.463 41.584 123.883 42.5643 122.042 43.1236C120.227 43.6753 118.34 43.9554 116.442 43.9549C114.977 43.9549 113.612 43.769 112.334 43.4098C111.076 43.0507 109.958 42.4946 109.005 41.7425C108.048 40.9757 107.312 40.0248 106.775 38.8732C106.241 37.7152 105.966 36.3369 105.966 34.7456C105.966 32.9889 106.282 31.5428 106.904 30.4105C107.511 29.2786 108.299 28.3676 109.284 27.6933C110.253 27.014 111.365 26.5028 112.625 26.1698C113.868 25.8319 115.127 25.5614 116.399 25.3595C117.675 25.1639 118.917 25.0054 120.158 24.8822C121.401 24.7608 122.479 24.5881 123.441 24.3453C124.39 24.109 125.151 23.7498 125.709 23.2954C126.257 22.8397 126.521 22.1764 126.484 21.2932C126.484 20.3808 126.322 19.6534 126.029 19.1097C125.752 18.5973 125.345 18.1666 124.85 17.861C124.35 17.56 123.787 17.3631 123.138 17.2577C122.441 17.1576 121.738 17.1079 121.034 17.1089C119.376 17.1089 118.064 17.4776 117.135 18.1862C116.179 18.9155 115.629 20.1156 115.459 21.7912H106.961C107.084 19.7908 107.576 18.139 108.465 16.8276ZM147.693 12.323V16.6219H147.882C148.954 14.835 150.337 13.536 152.055 12.7307C153.758 11.9186 155.522 11.5173 157.312 11.5173C159.584 11.5173 161.449 11.815 162.89 12.4279C164.357 13.0523 165.498 13.8969 166.324 14.9949C167.171 16.0883 167.754 17.4226 168.094 18.9947C168.436 20.5636 168.607 22.2946 168.607 24.2029V43.1565H160.09V25.741C160.09 23.202 159.691 21.2932 158.897 20.0446C158.091 18.7941 156.702 17.9925 154.662 17.9925C152.357 17.9925 150.678 18.8605 149.646 20.2305C148.608 21.6002 148.094 23.8552 148.094 26.9929V43.1565H139.67V12.323H147.693ZM187.456 17.8385C186.094 17.8385 184.97 18.139 184.066 18.7638C183.143 19.3798 182.373 20.1971 181.812 21.154C181.235 22.126 180.835 23.2015 180.588 24.3792C180.357 25.5551 180.228 26.7199 180.228 27.8779C180.228 28.9969 180.357 30.1311 180.588 31.2891C180.835 32.4406 181.216 33.4804 181.753 34.4282C182.293 35.3527 183.041 36.1386 183.938 36.7235C184.849 37.3236 185.957 37.6227 187.271 37.6227C189.311 37.6227 190.873 37.0533 191.969 35.926C193.059 34.7923 193.733 33.2688 194.018 31.3601H202.199C201.637 35.4506 200.046 38.5755 197.427 40.7297C194.799 42.8698 191.433 43.9549 187.334 43.9549C185.018 43.9549 182.914 43.5606 180.973 42.7869C179.036 42.0027 177.39 40.9226 176.035 39.5282C174.68 38.1307 173.628 36.4697 172.858 34.5386C172.106 32.6037 171.728 30.4801 171.728 28.1756C171.728 25.7882 172.079 23.5643 172.776 21.5085C173.47 19.461 174.495 17.6865 175.862 16.1982C177.216 14.7004 178.872 13.536 180.831 12.6982C182.781 11.8618 185.01 11.4431 187.513 11.4431C189.343 11.4431 191.102 11.6904 192.8 12.1531C194.485 12.6253 196 13.355 197.33 14.3335C198.659 15.3007 199.77 16.5368 200.591 17.9613C201.418 19.4056 201.89 21.1361 202.02 23.1145H193.714C193.164 19.5948 191.077 17.8385 187.456 17.8385ZM45.9564 3.41876H63.2226V7.62285H45.9564V3.41876ZM224.775 19.5563C223.754 18.4418 222.036 17.8385 219.982 17.8385C218.63 17.8385 217.506 18.0667 216.594 18.5307C215.715 18.9887 214.913 19.5595 214.375 20.2305C213.836 20.9131 213.449 21.6327 213.225 22.4027C213.024 23.1534 212.883 23.8341 212.846 24.436H226.734C226.507 22.2749 225.785 20.6785 224.775 19.5563M214.935 35.7598C216.209 36.9984 218.13 37.6227 220.524 37.6227C222.229 37.6227 223.702 37.1907 224.933 36.3287C226.164 35.4698 226.927 34.5496 227.199 33.5954H234.659C233.466 37.3075 231.635 39.9584 229.169 41.5533C226.707 43.1561 223.728 43.9549 220.229 43.9549C217.794 43.9549 215.598 43.5606 213.651 42.7869C211.692 42.0027 210.051 40.9029 208.678 39.4701C207.319 38.0304 206.278 36.3287 205.536 34.3315C204.801 32.3435 204.435 30.1421 204.435 27.7565C204.435 25.4502 204.814 23.2954 205.567 21.3047C206.331 19.3071 207.416 17.5829 208.806 16.1368C210.214 14.683 211.861 13.536 213.79 12.6982C215.728 11.8618 217.879 11.4431 220.229 11.4431C222.835 11.4431 225.13 11.9447 227.069 12.9684C229.027 13.9762 230.634 15.3426 231.883 17.0543C233.14 18.7634 234.044 20.7175 234.599 22.9075C235.145 25.0956 235.356 27.3813 235.199 29.7752H212.846C212.846 32.2125 213.659 34.5207 214.935 35.7598Z" fill="white"/>
</svg>
