<svg width="21" height="22" viewBox="0 0 21 22" fill="none" xmlns="http://www.w3.org/2000/svg">
<path d="M5.22739 9.76908V8.04062C5.22739 7.93831 5.22739 7.89739 5.36092 7.89739C6.50569 7.89739 7.43615 7.82954 7.89815 8.102C8.36123 8.37339 8.38062 8.74815 8.38815 8.86015C8.39569 8.97215 8.39246 9.13262 8.17708 9.52354C7.96169 9.91446 6.99785 9.922 6.30215 9.922H5.38139C5.26831 9.922 5.22739 9.88108 5.22739 9.76908ZM8.4 11.5805C8.50666 11.7166 8.5828 11.8741 8.62324 12.0423C8.66368 12.2104 8.66748 12.3853 8.63439 12.5551C8.60129 12.7248 8.53208 12.8855 8.43143 13.0262C8.33079 13.1668 8.20107 13.2842 8.05108 13.3703C7.83075 13.463 7.59441 13.5117 7.35538 13.5135H5.37062C5.26831 13.5135 5.22739 13.5135 5.22739 13.3811V11.3349C5.22739 11.2326 5.22739 11.1917 5.36092 11.1917H6.68015C7.49862 11.1917 8.01015 11.1206 8.4 11.5805Z" fill="white"/>
<path d="M15.6035 10.6328C15.5487 10.5034 15.4654 10.388 15.3599 10.2952C15.2544 10.2023 15.1293 10.1344 14.994 10.0965C14.7235 10.0226 14.4404 10.0069 14.1635 10.0505C13.8865 10.0942 13.6219 10.1961 13.3872 10.3495C13.1534 10.5858 13.0022 10.8915 12.9565 11.2208C12.9565 11.336 12.9565 11.3575 13.0932 11.3575H15.6455C15.7715 11.3575 15.7715 11.3575 15.7608 11.1992C15.7487 11.0013 15.6958 10.8083 15.6035 10.6328ZM15.6035 10.6328C15.5487 10.5034 15.4643 10.388 15.3588 10.2952C15.2533 10.2023 15.1293 10.1344 14.994 10.0965C14.7235 10.0226 14.4404 10.0069 14.1635 10.0505C13.8865 10.0942 13.6219 10.1961 13.3872 10.3495C13.1534 10.5858 13.0012 10.8915 12.9554 11.2208C12.9554 11.336 12.9554 11.3575 13.0922 11.3575H15.6455C15.7715 11.3575 15.7715 11.3575 15.7608 11.1992C15.7487 11.0013 15.6937 10.8083 15.6014 10.6328M16.8 0.5H4.2C3.08609 0.5 2.0178 0.942499 1.23015 1.73015C0.442499 2.5178 0 3.58609 0 4.7V17.3C0 18.4139 0.442499 19.4822 1.23015 20.2698C2.0178 21.0575 3.08609 21.5 4.2 21.5H16.8C17.9139 21.5 18.9822 21.0575 19.7698 20.2698C20.5575 19.4822 21 18.4139 21 17.3V4.7C21 3.58609 20.5575 2.5178 19.7698 1.73015C18.9822 0.942499 17.9139 0.5 16.8 0.5ZM12.684 7.18769C12.684 7.10477 12.684 7.07246 12.7788 7.07246H16.1808V7.95554C16.1808 7.95554 16.184 8.018 16.128 8.018H12.8315C12.684 8.018 12.684 8.018 12.684 7.87154V7.18769ZM9.534 14.906C8.24169 15.6092 6.06954 15.326 3.49677 15.326V6.62123H7.602C8.652 6.62123 9.90123 6.884 10.2372 7.99646C10.4117 8.48235 10.4011 9.01548 10.2074 9.49403C10.0137 9.97258 9.65054 10.363 9.18723 10.5908C9.61429 10.7488 9.98713 11.0259 10.2616 11.3892C10.5361 11.7525 10.7008 12.1869 10.7362 12.6409C10.7715 13.0948 10.6761 13.5495 10.4611 13.9509C10.2461 14.3523 9.92068 14.6838 9.52323 14.906H9.534ZM17.3568 12.428H13.1568C13.0415 12.428 12.936 12.4905 12.9565 12.638C13.0825 13.2572 13.3657 13.9088 14.0075 14.0035C14.3465 14.1044 14.7094 14.0889 15.0385 13.9595C15.3675 13.8301 15.6438 13.5942 15.8232 13.2895C15.8232 13.2895 15.876 13.226 15.9072 13.226H17.2728C17.2728 13.226 17.3568 13.226 17.3352 13.2992C17.1912 13.707 16.9781 14.087 16.7052 14.4225C16.3403 14.7711 15.8999 15.0309 15.4182 15.1818C14.9366 15.3326 14.4267 15.3704 13.9281 15.2923C13.4294 15.2142 12.9555 15.0222 12.5431 14.7313C12.1307 14.4404 11.7909 14.0583 11.55 13.6148C11.4019 13.319 11.3095 12.9985 11.2775 12.6692C11.0902 11.8417 11.2334 10.9738 11.6765 10.2502C12.1197 9.5267 12.8278 9.00475 13.65 8.79554C16.0332 8.28077 17.5452 9.91877 17.5452 12.2288C17.5488 12.2558 17.546 12.2832 17.5373 12.309C17.5285 12.3348 17.5139 12.3582 17.4947 12.3775C17.4754 12.3967 17.452 12.4113 17.4262 12.42C17.4004 12.4288 17.373 12.4315 17.346 12.428H17.3568ZM15.0048 10.0965C14.7345 10.0215 14.4512 10.0061 14.1745 10.0512C13.8977 10.0943 13.65 10.1471 13.398 10.3495C13.146 10.5509 13.0125 10.8912 12.9672 11.2208C12.9672 11.336 12.9672 11.3575 13.104 11.3575H15.6455C15.7715 11.3575 15.7715 11.3575 15.7608 11.1992C15.7487 11.0013 15.6958 10.8083 15.6035 10.6328C15.5487 10.5034 15.4654 10.388 15.3599 10.2952C15.2544 10.2023 15.1293 10.1344 14.994 10.0965H15.0048Z" fill="white"/>
</svg>
