<svg width="162" height="44" viewBox="0 0 162 44" fill="none" xmlns="http://www.w3.org/2000/svg">
<path d="M31.6312 18.6461H18.127C17.9595 18.6463 17.799 18.7129 17.6806 18.8313C17.5623 18.9498 17.4957 19.1103 17.4957 19.2778V25.8803C17.4957 26.2287 17.7785 26.5122 18.1266 26.5122H23.3951V34.7154C23.3951 34.7154 22.2121 35.1187 18.9417 35.1187C15.0833 35.1187 9.69324 33.7087 9.69324 21.8566C9.69324 10.002 15.306 8.44238 20.575 8.44238C25.1359 8.44238 27.101 9.24523 28.3511 9.63223C28.7441 9.75266 29.1075 9.36158 29.1075 9.01285L30.6138 2.6333C30.6138 2.47022 30.5586 2.2739 30.3727 2.14061C29.8649 1.77839 26.7673 0.0450439 18.9414 0.0450439C9.92657 0.0450439 0.678711 3.88055 0.678711 22.3189C0.678711 40.7578 11.2663 43.5054 20.1887 43.5054C27.5758 43.5054 32.0571 40.3486 32.0571 40.3486C32.2421 40.2466 32.2619 39.9885 32.2619 39.87V19.2778C32.2619 18.9296 31.9793 18.6461 31.6312 18.6461ZM101.191 2.35293C101.191 2.00168 100.913 1.71818 100.564 1.71818H92.9604C92.8773 1.71851 92.7952 1.73518 92.7186 1.76726C92.642 1.79934 92.5725 1.84619 92.514 1.90513C92.4556 1.96407 92.4093 2.03396 92.3778 2.11079C92.3463 2.18762 92.3303 2.2699 92.3306 2.35293L92.3325 17.0476H80.4804V2.35325C80.4804 2.002 80.2007 1.71849 79.8529 1.71849H72.2486C72.0812 1.7194 71.9209 1.78678 71.8031 1.90581C71.6853 2.02484 71.6196 2.18578 71.6205 2.35325V42.1421C71.6205 42.4934 71.9027 42.7788 72.2486 42.7788H79.8522C80.2 42.7788 80.4795 42.4934 80.4795 42.1421V25.1229H92.3319L92.3112 42.1418C92.3112 42.4931 92.5934 42.7784 92.9409 42.7784H100.563C100.911 42.7784 101.19 42.4931 101.19 42.1418L101.191 2.35293ZM45.9552 7.67277C45.9552 4.93492 43.7599 2.72206 41.0519 2.72206C38.3463 2.72206 36.1494 4.93461 36.1494 7.67277C36.1494 10.4075 38.3463 12.6263 41.0519 12.6263C43.7599 12.6263 45.9552 10.4075 45.9552 7.67277ZM45.3518 33.7692V15.4027C45.3523 15.2353 45.2864 15.0745 45.1684 14.9557C45.0504 14.8368 44.8901 14.7697 44.7227 14.7689H37.143C36.7952 14.7689 36.4844 15.1277 36.4844 15.4764V41.7902C36.4844 42.5636 36.9661 42.7935 37.5899 42.7935H44.4188C45.1684 42.7935 45.3518 42.4256 45.3518 41.7777V33.7692ZM130.252 14.7692H122.707C122.36 14.7692 122.079 15.0543 122.079 15.4052V34.9152C122.079 34.9152 120.162 36.3177 117.441 36.3177C114.72 36.3177 113.999 35.083 113.999 32.4191V15.4056C113.999 15.0543 113.717 14.7689 113.371 14.7689H105.713C105.367 14.7689 105.084 15.0543 105.084 15.4056V33.7075C105.084 41.62 109.494 43.5559 115.561 43.5559C120.538 43.5559 124.551 40.8064 124.551 40.8064C124.551 40.8064 124.742 42.2553 124.829 42.4272C124.915 42.5987 125.14 42.7715 125.384 42.7715L130.256 42.7502C130.601 42.7502 130.885 42.4645 130.885 42.1152L130.882 15.4052C130.883 15.2374 130.817 15.0762 130.699 14.957C130.581 14.8378 130.42 14.7702 130.252 14.7692ZM147.637 36.3327C145.02 36.2531 143.245 35.0654 143.245 35.0654V22.4647C143.245 22.4647 144.997 21.3912 147.145 21.1993C149.862 20.9559 152.481 21.7766 152.481 28.2587C152.481 35.094 151.299 36.4431 147.637 36.3327ZM150.614 13.9143C146.328 13.9143 143.413 15.8264 143.413 15.8264V2.35293C143.414 2.27005 143.398 2.18786 143.367 2.11108C143.335 2.03429 143.289 1.96442 143.231 1.90546C143.173 1.84651 143.104 1.79961 143.027 1.76748C142.951 1.73534 142.869 1.71859 142.786 1.71818H135.16C135.077 1.71855 134.995 1.73526 134.919 1.76737C134.842 1.79948 134.773 1.84635 134.715 1.9053C134.656 1.96425 134.61 2.03413 134.579 2.11093C134.547 2.18774 134.531 2.26997 134.532 2.35293V42.1418C134.532 42.4931 134.813 42.7784 135.161 42.7784H140.452C140.69 42.7784 140.871 42.6561 141.004 42.4407C141.135 42.2268 141.325 40.606 141.325 40.606C141.325 40.606 144.443 43.5609 150.346 43.5609C157.275 43.5609 161.249 40.0459 161.249 27.7814C161.249 15.5169 154.902 13.9143 150.614 13.9143ZM67.2368 14.7002H61.5331L61.5243 7.16503C61.5243 6.87995 61.3775 6.73726 61.0476 6.73726H53.275C52.9727 6.73726 52.8105 6.87023 52.8105 7.16064V14.9477C52.8105 14.9477 48.9154 15.8879 48.652 15.9638C48.5205 16.0018 48.405 16.0815 48.3229 16.1909C48.2407 16.3003 48.1964 16.4335 48.1966 16.5703V21.4636C48.1966 21.8155 48.4776 22.0993 48.8254 22.0993H52.8105V33.8712C52.8105 42.6147 58.9436 43.4737 63.0823 43.4737C64.9734 43.4737 67.2355 42.8663 67.609 42.7286C67.8348 42.6455 67.9659 42.4118 67.9659 42.1578L67.9722 36.7749C67.9722 36.424 67.6758 36.1399 67.3418 36.1399C67.0094 36.1399 66.1595 36.275 65.2839 36.275C62.4824 36.275 61.5331 34.9723 61.5331 33.2863L61.5328 22.0997H67.2368C67.3199 22.0993 67.4021 22.0826 67.4787 22.0504C67.5554 22.0183 67.6249 21.9713 67.6833 21.9122C67.7418 21.8531 67.788 21.7831 67.8193 21.7061C67.8506 21.6292 67.8665 21.5468 67.8659 21.4636V15.3347C67.8659 14.9834 67.5846 14.7002 67.2368 14.7002Z" fill="white"/>
</svg>
