<svg width="22" height="22" viewBox="0 0 22 22" fill="none" xmlns="http://www.w3.org/2000/svg">
<path d="M11 0.491164C8.11346 0.461831 5.33338 1.57977 3.27073 3.59929C1.20809 5.61881 0.0316602 8.37465 0 11.2612C0.0111224 13.5423 0.744943 15.7613 2.09606 17.5993C3.44718 19.4373 5.34608 20.7999 7.52 21.4912C8.07 21.5912 8.27 21.2612 8.27 20.9712V19.1412C5.21 19.7912 4.56 17.7012 4.56 17.7012C4.3563 17.0451 3.92323 16.4842 3.34 16.1212C2.34 15.4612 3.42 15.4712 3.42 15.4712C3.76565 15.5174 4.09635 15.6412 4.38731 15.8335C4.67826 16.0257 4.92192 16.2813 5.1 16.5812C5.41033 17.1193 5.91953 17.5141 6.51801 17.6805C7.11649 17.847 7.75639 17.7718 8.3 17.4712C8.35591 16.9235 8.60389 16.4134 9 16.0312C6.56 15.7612 4 14.8412 4 10.7112C3.97818 9.63384 4.37624 8.59027 5.11 7.80116C4.77583 6.87623 4.81529 5.85748 5.22 4.96116C5.22 4.96116 6.15 4.67116 8.22 6.06116C10.022 5.58193 11.918 5.58193 13.72 6.06116C15.82 4.67116 16.72 4.96116 16.72 4.96116C17.1247 5.85748 17.1642 6.87623 16.83 7.80116C17.5808 8.57581 18.0005 9.61238 18 10.6912C18 14.8312 15.42 15.7412 13 16.0112C13.265 16.2684 13.4697 16.5812 13.5994 16.927C13.729 17.2728 13.7805 17.6431 13.75 18.0112V20.9612C13.75 21.3112 13.95 21.5912 14.5 21.4812C16.6678 20.7856 18.5603 19.4227 19.9072 17.5873C21.2541 15.7519 21.9866 13.5377 22 11.2612C21.9683 8.37465 20.7919 5.61881 18.7293 3.59929C16.6666 1.57977 13.8865 0.461831 11 0.491164Z" fill="white"/>
</svg>
