<svg width="21" height="18" viewBox="0 0 21 18" fill="none" xmlns="http://www.w3.org/2000/svg">
<path d="M20.5814 3.43023H0V13.7209C0 14.6307 0.361399 15.5032 1.00469 16.1465C1.64799 16.7898 2.52048 17.1512 3.43023 17.1512H17.1512C18.0609 17.1512 18.9334 16.7898 19.5767 16.1465C20.22 15.5032 20.5814 14.6307 20.5814 13.7209V3.43023Z" fill="#367AF2"/>
<path d="M20.5814 3.43023H0V13.7209C0 14.6307 0.361399 15.5032 1.00469 16.1465C1.64799 16.7898 2.52048 17.1512 3.43023 17.1512H17.1512C18.0609 17.1512 18.9334 16.7898 19.5767 16.1465C20.22 15.5032 20.5814 14.6307 20.5814 13.7209V3.43023Z" fill="url(#paint0_linear_113_5)"/>
<path d="M20.5814 3.43023H0V13.7209C0 14.6307 0.361399 15.5032 1.00469 16.1465C1.64799 16.7898 2.52048 17.1512 3.43023 17.1512H17.1512C18.0609 17.1512 18.9334 16.7898 19.5767 16.1465C20.22 15.5032 20.5814 14.6307 20.5814 13.7209V3.43023Z" fill="url(#paint1_linear_113_5)"/>
<path d="M20.5814 3.43023H0V13.7209C0 14.6307 0.361399 15.5032 1.00469 16.1465C1.64799 16.7898 2.52048 17.1512 3.43023 17.1512H17.1512C18.0609 17.1512 18.9334 16.7898 19.5767 16.1465C20.22 15.5032 20.5814 14.6307 20.5814 13.7209V3.43023Z" fill="url(#paint2_linear_113_5)" fill-opacity="0.75"/>
<path d="M20.5814 3.43023H0V13.7209C0 14.6307 0.361399 15.5032 1.00469 16.1465C1.64799 16.7898 2.52048 17.1512 3.43023 17.1512H17.1512C18.0609 17.1512 18.9334 16.7898 19.5767 16.1465C20.22 15.5032 20.5814 14.6307 20.5814 13.7209V3.43023Z" fill="url(#paint3_linear_113_5)" fill-opacity="0.7"/>
<path d="M3.43023 0C2.52048 0 1.64799 0.361399 1.00469 1.00469C0.361399 1.64799 0 2.52048 0 3.43023V4.87093L9.88422 10.1929C10.0092 10.2602 10.1488 10.2954 10.2907 10.2954C10.4326 10.2954 10.5723 10.2602 10.6972 10.1929L20.5814 4.87093V3.43023C20.5814 2.52048 20.22 1.64799 19.5767 1.00469C18.9334 0.361399 18.0609 0 17.1512 0H3.43023Z" fill="url(#paint4_linear_113_5)"/>
<path d="M0 3.43023C0 2.52048 0.361399 1.64799 1.00469 1.00469C1.64799 0.361399 2.52048 0 3.43023 0H17.1512C18.0609 0 18.9334 0.361399 19.5767 1.00469C20.22 1.64799 20.5814 2.52048 20.5814 3.43023V13.7209C20.5814 14.6307 20.22 15.5032 19.5767 16.1465C18.9334 16.7898 18.0609 17.1512 17.1512 17.1512H3.43023C2.52048 17.1512 1.64799 16.7898 1.00469 16.1465C0.361399 15.5032 0 14.6307 0 13.7209V3.43023Z" fill="url(#paint5_radial_113_5)" fill-opacity="0.3"/>
<path d="M0 3.43023C0 2.52048 0.361399 1.64799 1.00469 1.00469C1.64799 0.361399 2.52048 0 3.43023 0H17.1512C18.0609 0 18.9334 0.361399 19.5767 1.00469C20.22 1.64799 20.5814 2.52048 20.5814 3.43023V13.7209C20.5814 14.6307 20.22 15.5032 19.5767 16.1465C18.9334 16.7898 18.0609 17.1512 17.1512 17.1512H3.43023C2.52048 17.1512 1.64799 16.7898 1.00469 16.1465C0.361399 15.5032 0 14.6307 0 13.7209V3.43023Z" fill="url(#paint6_radial_113_5)" fill-opacity="0.3"/>
<path d="M0 3.43023C0 2.52048 0.361399 1.64799 1.00469 1.00469C1.64799 0.361399 2.52048 0 3.43023 0H17.1512C18.0609 0 18.9334 0.361399 19.5767 1.00469C20.22 1.64799 20.5814 2.52048 20.5814 3.43023V13.7209C20.5814 14.6307 20.22 15.5032 19.5767 16.1465C18.9334 16.7898 18.0609 17.1512 17.1512 17.1512H3.43023C2.52048 17.1512 1.64799 16.7898 1.00469 16.1465C0.361399 15.5032 0 14.6307 0 13.7209V3.43023Z" fill="url(#paint7_radial_113_5)" fill-opacity="0.3"/>
<path d="M0 3.43023C0 2.52048 0.361399 1.64799 1.00469 1.00469C1.64799 0.361399 2.52048 0 3.43023 0H17.1512C18.0609 0 18.9334 0.361399 19.5767 1.00469C20.22 1.64799 20.5814 2.52048 20.5814 3.43023V13.7209C20.5814 14.6307 20.22 15.5032 19.5767 16.1465C18.9334 16.7898 18.0609 17.1512 17.1512 17.1512H3.43023C2.52048 17.1512 1.64799 16.7898 1.00469 16.1465C0.361399 15.5032 0 14.6307 0 13.7209V3.43023Z" fill="url(#paint8_radial_113_5)" fill-opacity="0.3"/>
<defs>
<linearGradient id="paint0_linear_113_5" x1="12.9028" y1="6.11954" x2="18.9109" y2="16.8322" gradientUnits="userSpaceOnUse">
<stop offset="0.228" stop-color="#0094F0" stop-opacity="0"/>
<stop offset="0.431" stop-color="#0094F0"/>
</linearGradient>
<linearGradient id="paint1_linear_113_5" x1="7.35099" y1="4.87436" x2="0.675757" y2="17.4908" gradientUnits="userSpaceOnUse">
<stop offset="0.228" stop-color="#0094F0" stop-opacity="0"/>
<stop offset="0.431" stop-color="#0094F0"/>
</linearGradient>
<linearGradient id="paint2_linear_113_5" x1="15.7173" y1="11.6165" x2="16.7327" y2="18.3963" gradientUnits="userSpaceOnUse">
<stop stop-color="#2764E7" stop-opacity="0"/>
<stop offset="1" stop-color="#2764E7"/>
</linearGradient>
<linearGradient id="paint3_linear_113_5" x1="13.4757" y1="5.11448" x2="15.328" y2="18.9263" gradientUnits="userSpaceOnUse">
<stop offset="0.533" stop-color="#FF6CE8" stop-opacity="0"/>
<stop offset="1" stop-color="#FF6CE8"/>
</linearGradient>
<linearGradient id="paint4_linear_113_5" x1="6.11439" y1="-4.27579" x2="17.6932" y2="16.6795" gradientUnits="userSpaceOnUse">
<stop stop-color="#6CE0FF"/>
<stop offset="0.462" stop-color="#29C3FF"/>
<stop offset="1" stop-color="#4894FE"/>
</linearGradient>
<radialGradient id="paint5_radial_113_5" cx="0" cy="0" r="1" gradientUnits="userSpaceOnUse" gradientTransform="translate(16.0792 5.93774) rotate(90) scale(3.95796 3.78228)">
<stop offset="0.535" stop-color="#4A43CB"/>
<stop offset="1" stop-color="#4A43CB" stop-opacity="0"/>
</radialGradient>
<radialGradient id="paint6_radial_113_5" cx="0" cy="0" r="1" gradientUnits="userSpaceOnUse" gradientTransform="translate(15.4361 4.28779) rotate(90) scale(3.43023 8.20041)">
<stop offset="0.5" stop-color="#4A43CB"/>
<stop offset="1" stop-color="#4A43CB" stop-opacity="0"/>
</radialGradient>
<radialGradient id="paint7_radial_113_5" cx="0" cy="0" r="1" gradientUnits="userSpaceOnUse" gradientTransform="translate(11.1483 3.43023) rotate(45) scale(2.42554 2.21709)">
<stop stop-color="#4A43CB"/>
<stop offset="1" stop-color="#4A43CB" stop-opacity="0"/>
</radialGradient>
<radialGradient id="paint8_radial_113_5" cx="0" cy="0" r="1" gradientUnits="userSpaceOnUse" gradientTransform="translate(16.0792 0.66032) rotate(90) scale(6.5966 6.48529)">
<stop offset="0.535" stop-color="#4A43CB"/>
<stop offset="1" stop-color="#4A43CB" stop-opacity="0"/>
</radialGradient>
</defs>
</svg>
