<svg width="24" height="25" viewBox="0 0 24 25" fill="none" xmlns="http://www.w3.org/2000/svg">
<path d="M20.5814 10.2907H0V20.5814C0 21.4912 0.361399 22.3637 1.00469 23.0069C1.64799 23.6502 2.52048 24.0116 3.43023 24.0116H17.1512C18.0609 24.0116 18.9334 23.6502 19.5767 23.0069C20.22 22.3637 20.5814 21.4912 20.5814 20.5814V10.2907Z" fill="#367AF2"/>
<path d="M20.5814 10.2907H0V20.5814C0 21.4912 0.361399 22.3637 1.00469 23.0069C1.64799 23.6502 2.52048 24.0116 3.43023 24.0116H17.1512C18.0609 24.0116 18.9334 23.6502 19.5767 23.0069C20.22 22.3637 20.5814 21.4912 20.5814 20.5814V10.2907Z" fill="url(#paint0_linear_113_5)"/>
<path d="M20.5814 10.2907H0V20.5814C0 21.4912 0.361399 22.3637 1.00469 23.0069C1.64799 23.6502 2.52048 24.0116 3.43023 24.0116H17.1512C18.0609 24.0116 18.9334 23.6502 19.5767 23.0069C20.22 22.3637 20.5814 21.4912 20.5814 20.5814V10.2907Z" fill="url(#paint1_linear_113_5)"/>
<path d="M20.5814 10.2907H0V20.5814C0 21.4912 0.361399 22.3637 1.00469 23.0069C1.64799 23.6502 2.52048 24.0116 3.43023 24.0116H17.1512C18.0609 24.0116 18.9334 23.6502 19.5767 23.0069C20.22 22.3637 20.5814 21.4912 20.5814 20.5814V10.2907Z" fill="url(#paint2_linear_113_5)" fill-opacity="0.75"/>
<path d="M20.5814 10.2907H0V20.5814C0 21.4912 0.361399 22.3637 1.00469 23.0069C1.64799 23.6502 2.52048 24.0116 3.43023 24.0116H17.1512C18.0609 24.0116 18.9334 23.6502 19.5767 23.0069C20.22 22.3637 20.5814 21.4912 20.5814 20.5814V10.2907Z" fill="url(#paint3_linear_113_5)" fill-opacity="0.7"/>
<path d="M3.43023 6.86047C2.52048 6.86047 1.64799 7.22187 1.00469 7.86516C0.361399 8.50846 0 9.38095 0 10.2907V11.7314L9.88422 17.0534C10.0092 17.1207 10.1488 17.1559 10.2907 17.1559C10.4326 17.1559 10.5723 17.1207 10.6972 17.0534L20.5814 11.7314V10.2907C20.5814 9.38095 20.22 8.50846 19.5767 7.86516C18.9334 7.22187 18.0609 6.86047 17.1512 6.86047H3.43023Z" fill="url(#paint4_linear_113_5)"/>
<path d="M0 10.2907C0 9.38095 0.361399 8.50846 1.00469 7.86516C1.64799 7.22187 2.52048 6.86047 3.43023 6.86047H17.1512C18.0609 6.86047 18.9334 7.22187 19.5767 7.86516C20.22 8.50846 20.5814 9.38095 20.5814 10.2907V20.5814C20.5814 21.4912 20.22 22.3637 19.5767 23.0069C18.9334 23.6502 18.0609 24.0116 17.1512 24.0116H3.43023C2.52048 24.0116 1.64799 23.6502 1.00469 23.0069C0.361399 22.3637 0 21.4912 0 20.5814V10.2907Z" fill="url(#paint5_radial_113_5)" fill-opacity="0.3"/>
<path d="M0 10.2907C0 9.38095 0.361399 8.50846 1.00469 7.86516C1.64799 7.22187 2.52048 6.86047 3.43023 6.86047H17.1512C18.0609 6.86047 18.9334 7.22187 19.5767 7.86516C20.22 8.50846 20.5814 9.38095 20.5814 10.2907V20.5814C20.5814 21.4912 20.22 22.3637 19.5767 23.0069C18.9334 23.6502 18.0609 24.0116 17.1512 24.0116H3.43023C2.52048 24.0116 1.64799 23.6502 1.00469 23.0069C0.361399 22.3637 0 21.4912 0 20.5814V10.2907Z" fill="url(#paint6_radial_113_5)" fill-opacity="0.3"/>
<path d="M0 10.2907C0 9.38095 0.361399 8.50846 1.00469 7.86516C1.64799 7.22187 2.52048 6.86047 3.43023 6.86047H17.1512C18.0609 6.86047 18.9334 7.22187 19.5767 7.86516C20.22 8.50846 20.5814 9.38095 20.5814 10.2907V20.5814C20.5814 21.4912 20.22 22.3637 19.5767 23.0069C18.9334 23.6502 18.0609 24.0116 17.1512 24.0116H3.43023C2.52048 24.0116 1.64799 23.6502 1.00469 23.0069C0.361399 22.3637 0 21.4912 0 20.5814V10.2907Z" fill="url(#paint7_radial_113_5)" fill-opacity="0.3"/>
<path d="M0 10.2907C0 9.38095 0.361399 8.50846 1.00469 7.86516C1.64799 7.22187 2.52048 6.86047 3.43023 6.86047H17.1512C18.0609 6.86047 18.9334 7.22187 19.5767 7.86516C20.22 8.50846 20.5814 9.38095 20.5814 10.2907V20.5814C20.5814 21.4912 20.22 22.3637 19.5767 23.0069C18.9334 23.6502 18.0609 24.0116 17.1512 24.0116H3.43023C2.52048 24.0116 1.64799 23.6502 1.00469 23.0069C0.361399 22.3637 0 21.4912 0 20.5814V10.2907Z" fill="url(#paint8_radial_113_5)" fill-opacity="0.3"/>
<path d="M19.7239 5.14535C19.7239 6.0551 19.3625 6.9276 18.7192 7.57089C18.0759 8.21419 17.2034 8.57558 16.2936 8.57558C15.3839 8.57558 14.5114 8.21419 13.8681 7.57089C13.2248 6.9276 12.8634 6.0551 12.8634 5.14535C12.8634 4.2356 13.2248 3.3631 13.8681 2.71981C14.5114 2.07651 15.3839 1.71512 16.2936 1.71512C17.2034 1.71512 18.0759 2.07651 18.7192 2.71981C19.3625 3.3631 19.7239 4.2356 19.7239 5.14535Z" fill="url(#paint9_linear_113_5)"/>
<path d="M11.1432 5.14535C11.1432 3.78072 11.6853 2.47198 12.6502 1.50704C13.6152 0.542098 14.9239 0 16.2886 0C17.6532 0 18.9619 0.542098 19.9269 1.50704C20.8918 2.47198 21.4339 3.78072 21.4339 5.14535V8.57559L23.6979 10.4948C23.8315 10.6084 23.9271 10.7602 23.9718 10.9299C24.0165 11.0995 24.0081 11.2788 23.9477 11.4435C23.8873 11.6081 23.7779 11.7504 23.6341 11.8509C23.4904 11.9515 23.3193 12.0055 23.1439 12.0058H9.43494C9.25953 12.0055 9.08842 11.9515 8.94469 11.8509C8.80096 11.7504 8.69152 11.6081 8.63114 11.4435C8.57076 11.2788 8.56234 11.0995 8.60701 10.9299C8.65168 10.7602 8.74729 10.6084 8.88096 10.4948L11.1449 8.57559L11.1432 5.14535Z" fill="url(#paint10_linear_113_5)"/>
<defs>
<linearGradient id="paint0_linear_113_5" x1="12.9028" y1="12.98" x2="18.9109" y2="23.6926" gradientUnits="userSpaceOnUse">
<stop offset="0.228" stop-color="#0094F0" stop-opacity="0"/>
<stop offset="0.431" stop-color="#0094F0"/>
</linearGradient>
<linearGradient id="paint1_linear_113_5" x1="7.35099" y1="11.7348" x2="0.675757" y2="24.3512" gradientUnits="userSpaceOnUse">
<stop offset="0.228" stop-color="#0094F0" stop-opacity="0"/>
<stop offset="0.431" stop-color="#0094F0"/>
</linearGradient>
<linearGradient id="paint2_linear_113_5" x1="15.7173" y1="18.477" x2="16.7327" y2="25.2568" gradientUnits="userSpaceOnUse">
<stop stop-color="#2764E7" stop-opacity="0"/>
<stop offset="1" stop-color="#2764E7"/>
</linearGradient>
<linearGradient id="paint3_linear_113_5" x1="13.4757" y1="11.9749" x2="15.328" y2="25.7868" gradientUnits="userSpaceOnUse">
<stop offset="0.533" stop-color="#FF6CE8" stop-opacity="0"/>
<stop offset="1" stop-color="#FF6CE8"/>
</linearGradient>
<linearGradient id="paint4_linear_113_5" x1="6.11439" y1="2.58468" x2="17.6932" y2="23.54" gradientUnits="userSpaceOnUse">
<stop stop-color="#6CE0FF"/>
<stop offset="0.462" stop-color="#29C3FF"/>
<stop offset="1" stop-color="#4894FE"/>
</linearGradient>
<radialGradient id="paint5_radial_113_5" cx="0" cy="0" r="1" gradientUnits="userSpaceOnUse" gradientTransform="translate(16.0792 12.7982) rotate(90) scale(3.95796 3.78228)">
<stop offset="0.535" stop-color="#4A43CB"/>
<stop offset="1" stop-color="#4A43CB" stop-opacity="0"/>
</radialGradient>
<radialGradient id="paint6_radial_113_5" cx="0" cy="0" r="1" gradientUnits="userSpaceOnUse" gradientTransform="translate(15.4361 11.1483) rotate(90) scale(3.43023 8.20041)">
<stop offset="0.5" stop-color="#4A43CB"/>
<stop offset="1" stop-color="#4A43CB" stop-opacity="0"/>
</radialGradient>
<radialGradient id="paint7_radial_113_5" cx="0" cy="0" r="1" gradientUnits="userSpaceOnUse" gradientTransform="translate(11.1483 10.2907) rotate(45) scale(2.42554 2.21709)">
<stop stop-color="#4A43CB"/>
<stop offset="1" stop-color="#4A43CB" stop-opacity="0"/>
</radialGradient>
<radialGradient id="paint8_radial_113_5" cx="0" cy="0" r="1" gradientUnits="userSpaceOnUse" gradientTransform="translate(16.0792 7.52079) rotate(90) scale(6.5966 6.48529)">
<stop offset="0.535" stop-color="#4A43CB"/>
<stop offset="1" stop-color="#4A43CB" stop-opacity="0"/>
</radialGradient>
<linearGradient id="paint9_linear_113_5" x1="16.3159" y1="4.5725" x2="16.3159" y2="8.57558" gradientUnits="userSpaceOnUse">
<stop stop-color="#EB4824"/>
<stop offset="1" stop-color="#FFCD0F" stop-opacity="0.988"/>
</linearGradient>
<linearGradient id="paint10_linear_113_5" x1="24.0254" y1="12.0007" x2="12.4055" y2="-0.212674" gradientUnits="userSpaceOnUse">
<stop stop-color="#FF6F47"/>
<stop offset="1" stop-color="#FFCD0F"/>
</linearGradient>
</defs>
</svg>
