<svg width="34" height="40" viewBox="0 0 34 40" fill="none" xmlns="http://www.w3.org/2000/svg">
<path d="M25.6031 0H7.83768C3.50905 0 0 4.10689 0 9.17299V29.9651C0 35.0312 3.50905 39.1381 7.83768 39.1381H25.6031C29.9317 39.1381 33.4408 35.0312 33.4408 29.9651V9.17299C33.4408 4.10689 29.9317 0 25.6031 0Z" fill="#0277BD"/>
<path d="M7.02152 15.6936L7.39538 20.577H16.7328V15.6936H7.02152ZM16.7327 5.80957H6.27002L6.64936 10.693H16.7327V5.80957ZM16.7327 33.4571V28.3763L16.7144 28.382L12.0674 26.9136L11.7704 23.0187H7.58179L8.16635 30.6864L16.7135 33.4634L16.7327 33.4571Z" fill="#EBEBEB"/>
<path d="M21.8558 20.577L21.3714 26.9103L16.7178 28.3805V33.4609L25.2717 30.6864L25.3344 29.8613L26.3149 17.005L26.4166 15.6936L27.17 5.80957H16.7178V10.693H22.5972L22.2176 15.6936H16.7178V20.577H21.8558Z" fill="white"/>
</svg>
