<svg width="23" height="34" viewBox="0 0 23 34" fill="none" xmlns="http://www.w3.org/2000/svg">
<path d="M5.57346 33.4404C8.6583 33.4404 11.1469 30.9518 11.1469 27.8669V22.2935H5.57346C2.48861 22.2935 0 24.7821 0 27.8669C0 30.9518 2.48861 33.4404 5.57346 33.4404Z" fill="#0ACF83"/>
<path d="M0 16.7204C0 13.6356 2.48861 11.147 5.57346 11.147H11.1469V22.2939H5.57346C2.48861 22.2939 0 19.8053 0 16.7204Z" fill="#A259FF"/>
<path d="M0 5.57346C0 2.48861 2.48861 0 5.57346 0H11.1469V11.1469H5.57346C2.48861 11.1469 0 8.6583 0 5.57346Z" fill="#F24E1E"/>
<path d="M11.1475 0H16.7209C19.8058 0 22.2944 2.48861 22.2944 5.57346C22.2944 8.6583 19.8058 11.1469 16.7209 11.1469H11.1475V0Z" fill="#FF7262"/>
<path d="M22.2944 16.7204C22.2944 19.8053 19.8058 22.2939 16.7209 22.2939C13.6361 22.2939 11.1475 19.8053 11.1475 16.7204C11.1475 13.6356 13.6361 11.147 16.7209 11.147C19.8058 11.147 22.2944 13.6356 22.2944 16.7204Z" fill="#1ABCFE"/>
</svg>
