<svg width="35" height="34" viewBox="0 0 35 34" fill="none" xmlns="http://www.w3.org/2000/svg">
<path d="M28.6042 0H5.69404C2.54931 0 0 2.54931 0 5.69404V27.7467C0 30.8915 2.54931 33.4408 5.69404 33.4408H28.6042C31.7489 33.4408 34.2982 30.8915 34.2982 27.7467V5.69404C34.2982 2.54931 31.7489 0 28.6042 0Z" fill="#330000"/>
<path d="M16.6206 20.0682H11.3057L10.2242 23.4274C10.2095 23.4887 10.1739 23.5429 10.1235 23.5807C10.0731 23.6185 10.0111 23.6376 9.94812 23.6345H7.25611C7.10266 23.6345 7.04898 23.5501 7.09507 23.3813L11.6968 10.1285C11.7428 9.99054 11.7888 9.83334 11.8348 9.65694C11.8951 9.34986 11.9259 9.03796 11.9268 8.72513C11.9237 8.70324 11.9257 8.68093 11.9327 8.65996C11.9397 8.63898 11.9514 8.61992 11.9671 8.60429C11.9827 8.58865 12.0017 8.57686 12.0227 8.56986C12.0437 8.56286 12.066 8.56084 12.0879 8.56395H15.7463C15.8534 8.56395 15.9148 8.60236 15.9303 8.67917L21.1532 23.4044C21.1992 23.558 21.1532 23.6347 21.0152 23.6345H18.024C17.9727 23.6401 17.921 23.6269 17.8787 23.5973C17.8364 23.5677 17.8063 23.5237 17.794 23.4735L16.6206 20.0682ZM12.134 17.1692H15.7693L15.7175 16.9981L15.6343 16.7272L15.5749 16.5369L15.4802 16.2374L15.2788 15.6067L15.1017 15.0477L14.6417 13.5913C14.5273 13.2293 14.4174 12.8658 14.3122 12.501L14.228 12.2049L14.1297 11.8548L13.9796 11.3122L13.9515 11.21H13.9286C13.8134 11.7623 13.6732 12.309 13.5084 12.8485L13.1671 13.9466L12.9792 14.5533L12.7896 15.1674C12.7554 15.2784 12.7213 15.388 12.6872 15.4965L12.5853 15.8178L12.484 16.1315L12.3833 16.4375L12.2831 16.7359C12.2498 16.8342 12.2167 16.9311 12.1835 17.0266L12.134 17.1692ZM24.259 11.0029C24.0244 11.0123 23.7904 10.972 23.5723 10.8848C23.3543 10.7976 23.1571 10.6653 22.9936 10.4967C22.8307 10.3207 22.7042 10.1142 22.6212 9.88914C22.5383 9.66408 22.5006 9.42486 22.5104 9.1852C22.502 8.94795 22.5438 8.71159 22.633 8.49158C22.7222 8.27158 22.8568 8.07286 23.0281 7.9084C23.3583 7.59136 23.7982 7.41394 24.256 7.41309L24.305 7.41362C24.8573 7.41362 25.2906 7.5785 25.6051 7.90827C25.7638 8.07966 25.8871 8.28066 25.9681 8.49977C26.049 8.71889 26.0859 8.95181 26.0767 9.1852C26.0865 9.42583 26.0477 9.66596 25.9627 9.8913C25.8777 10.1166 25.7483 10.3226 25.5821 10.4968C25.4143 10.6622 25.2152 10.7922 24.9965 10.8794C24.7777 10.9666 24.5437 11.0092 24.3082 11.0046L24.259 11.0029ZM22.6714 23.4044V12.4064C22.6713 12.2683 22.7327 12.1993 22.8555 12.1993H25.6856C25.8083 12.1993 25.8696 12.2683 25.8697 12.4064V23.4044C25.8697 23.558 25.8084 23.6347 25.6856 23.6345H22.8785C22.7478 23.6345 22.679 23.5657 22.6721 23.4279L22.6714 23.4044Z" fill="#FF9A00"/>
</svg>
