<svg width="34" height="34" viewBox="0 0 34 34" fill="none" xmlns="http://www.w3.org/2000/svg">
<path d="M0 0H33.4405V33.4408H0V0Z" fill="#F0DB4F"/>
<path d="M30.7037 25.4655C30.4587 23.9399 29.4639 22.6585 26.5172 21.4636C25.4935 20.9932 24.3524 20.6563 24.0123 19.8806C23.8916 19.4291 23.8755 19.1748 23.9519 18.9015C24.1712 18.0147 25.2299 17.7382 26.0689 17.9925C26.6094 18.1736 27.1209 18.5901 27.4294 19.2544C28.8725 18.32 28.8695 18.3261 29.8772 17.684C29.5083 17.112 29.3114 16.8481 29.0699 16.6034C28.202 15.634 27.0194 15.1347 25.1281 15.1729L24.1429 15.3004C23.1989 15.5389 22.2992 16.0344 21.7716 16.6988C20.1886 18.495 20.64 21.6386 22.5663 22.9323C24.464 24.3566 27.2518 24.6807 27.6079 26.0126C27.9544 27.6431 26.4095 28.171 24.8741 27.9835C23.7425 27.7481 23.1131 27.173 22.4328 26.1272C21.1805 26.8519 21.1805 26.8519 19.8929 27.5924C20.1982 28.2599 20.519 28.5621 21.0309 29.1404C23.4532 31.5975 29.5149 31.4767 30.6022 27.7577C30.6462 27.63 30.939 26.7784 30.7037 25.4655ZM18.1792 15.3698H15.0514L15.0386 23.4564C15.0386 25.1762 15.1275 26.7528 14.8479 27.236C14.3903 28.1865 13.2045 28.0687 12.6641 27.8844C12.114 27.614 11.8344 27.2296 11.5103 26.6863C11.4214 26.5303 11.3546 26.4095 11.3321 26.4002L8.78906 27.9575C9.21193 28.8255 9.83488 29.5788 10.6328 30.0681C11.8247 30.7835 13.4267 31.0028 15.1022 30.6182C16.1926 30.3005 17.1334 29.6426 17.626 28.6411C18.3382 27.3282 18.1854 25.739 18.179 23.9813C18.195 21.1137 18.1792 18.2465 18.1792 15.3698Z" fill="#323330"/>
</svg>
