<svg width="38" height="34" viewBox="0 0 38 34" fill="none" xmlns="http://www.w3.org/2000/svg">
<path d="M18.7367 11.3671C28.6993 11.3671 34.7967 14.8334 34.7967 16.7204C34.7967 18.6075 28.6993 22.0738 18.7367 22.0738C8.77413 22.0738 2.67667 18.6075 2.67667 16.7204C2.67667 14.8334 8.77413 11.3671 18.7367 11.3671ZM18.7367 8.69043C8.38869 8.69043 0 12.2852 0 16.7204C0 21.1557 8.38869 24.7505 18.7367 24.7505C29.0847 24.7505 37.4734 21.1557 37.4734 16.7204C37.4734 12.2852 29.0847 8.69043 18.7367 8.69043Z" fill="#0288D1"/>
<path d="M18.7367 14.043C18.2073 14.043 17.6898 14.2 17.2497 14.4941C16.8095 14.7882 16.4664 15.2062 16.2638 15.6953C16.0612 16.1844 16.0082 16.7226 16.1115 17.2418C16.2148 17.7611 16.4697 18.238 16.844 18.6123C17.2184 18.9867 17.6953 19.2416 18.2145 19.3449C18.7338 19.4482 19.272 19.3952 19.7611 19.1926C20.2501 18.99 20.6682 18.6469 20.9623 18.2067C21.2564 17.7665 21.4134 17.249 21.4134 16.7196C21.4134 16.0097 21.1314 15.3289 20.6294 14.8269C20.1275 14.325 19.4466 14.043 18.7367 14.043Z" fill="#0288D1"/>
<path d="M11.3194 2.67667C14.0189 2.67667 19.2651 6.92857 23.3725 14.0432C28.3538 22.6714 28.4006 29.6843 26.7665 30.6278C26.578 30.7256 26.367 30.7717 26.1549 30.7617C23.4555 30.7617 18.2079 26.5111 14.1005 19.3965C9.11922 10.7683 9.07238 3.75537 10.7065 2.81184C10.8954 2.71387 11.1069 2.66635 11.3194 2.67667ZM11.3181 0.00133824C10.636 -0.0110035 9.96299 0.15853 9.36815 0.492508C5.52713 2.71013 6.6085 11.7733 11.7825 20.7348C16.1776 28.35 22.1145 33.4397 26.1562 33.4397C26.8381 33.451 27.5107 33.2805 28.1049 32.9458C31.9459 30.7295 30.8645 21.6663 25.6905 12.7048C21.2954 5.08969 15.3585 0 11.3168 0L11.3181 0.00133824Z" fill="#0288D1"/>
<path d="M26.1546 2.67722C26.3667 2.66714 26.5777 2.71331 26.7662 2.81105C28.4003 3.75592 28.3535 10.7688 23.3722 19.3971C19.2635 26.5116 14.0172 30.7635 11.3178 30.7635C11.1057 30.7736 10.8947 30.7274 10.7062 30.6297C9.07208 29.6835 9.11892 22.6706 14.1002 14.0437C18.2089 6.92911 23.4552 2.67722 26.1546 2.67722ZM26.1546 0.00054803C22.1128 0.00054803 16.1773 5.09158 11.7809 12.7054C6.60954 21.6669 5.52683 30.7301 9.36785 32.9464C9.96242 33.2813 10.6355 33.4517 11.3178 33.4402C15.3596 33.4402 21.2951 28.3492 25.6915 20.7354C30.8629 11.7739 31.9456 2.71068 28.1046 0.494394C27.51 0.159483 26.8369 -0.0109777 26.1546 0.00054803Z" fill="#0288D1"/>
</svg>
