<svg width="26" height="25" viewBox="0 0 26 25" fill="none" xmlns="http://www.w3.org/2000/svg">
<path d="M12.5147 0.831055C18.9675 0.831055 24.1885 6.05202 24.1885 12.4951C24.1885 18.9382 18.9675 24.169 12.5147 24.169C6.06178 24.169 0.84082 18.948 0.84082 12.5049C0.84082 6.06179 6.06178 0.831055 12.5147 0.831055Z" fill="#E74D89"/>
<path d="M12.5147 25C5.61205 25 0 19.3977 0 12.5049C0 5.60227 5.61205 0 12.5147 0C19.4173 0 25.0293 5.60227 25.0293 12.4951C25.0293 19.388 19.4173 25 12.5147 25ZM23.0641 14.2061C22.7024 14.0888 19.7595 13.2186 16.4059 13.7466C17.8041 17.5792 18.3711 20.7079 18.4787 21.3531C20.8838 19.7399 22.5948 17.1783 23.0641 14.2061ZM16.6895 22.3406C16.533 21.402 15.9073 18.1365 14.4114 14.2452C14.3919 14.255 14.3625 14.2648 14.343 14.2648C8.31052 16.3668 6.14979 20.5417 5.95424 20.9327C7.763 22.3406 10.0411 23.1815 12.5147 23.1815C13.991 23.1912 15.4087 22.8881 16.6895 22.3406ZM4.57567 19.6519C4.8201 19.2413 7.75323 14.3919 13.2675 12.6027C13.4044 12.5538 13.551 12.5147 13.6879 12.4756C13.4239 11.8694 13.1306 11.2632 12.8178 10.6668C7.47947 12.2605 2.29761 12.192 1.82831 12.1822C1.82831 12.2898 1.81854 12.3973 1.81854 12.5049C1.82831 15.2522 2.86469 17.7552 4.57567 19.6519ZM2.05319 10.3246C2.53226 10.3344 6.93195 10.3539 11.9378 9.02425C10.1682 5.87603 8.25186 3.23621 7.9781 2.85491C4.97653 4.26281 2.74736 7.01995 2.05319 10.3246ZM10.0117 2.1314C10.305 2.52249 12.2507 5.1623 14.0008 8.37896C17.8041 6.95151 19.4075 4.80055 19.6031 4.52679C17.7161 2.85491 15.2327 1.83809 12.5147 1.83809C11.6543 1.83809 10.8135 1.94564 10.0117 2.1314ZM20.7861 5.7587C20.5612 6.06179 18.772 8.35941 14.8221 9.97262C15.0665 10.481 15.3109 10.9992 15.5358 11.5174C15.614 11.7032 15.6922 11.8889 15.7704 12.0649C19.3293 11.6152 22.8588 12.3387 23.2108 12.4071C23.1815 9.89441 22.282 7.57724 20.7861 5.7587Z" fill="#B2215A"/>
</svg>
