<svg width="31" height="26" viewBox="0 0 31 26" fill="none" xmlns="http://www.w3.org/2000/svg">
<path d="M30.9715 5.16162H0.00146484V20.6466C0.00146484 22.0156 0.545282 23.3285 1.51328 24.2965C2.48128 25.2645 3.79417 25.8083 5.16313 25.8083H25.8098C27.1788 25.8083 28.4916 25.2645 29.4596 24.2965C30.4276 23.3285 30.9715 22.0156 30.9715 20.6466V5.16162Z" fill="#367AF2"/>
<path d="M30.9715 5.16162H0.00146484V20.6466C0.00146484 22.0156 0.545282 23.3285 1.51328 24.2965C2.48128 25.2645 3.79417 25.8083 5.16313 25.8083H25.8098C27.1788 25.8083 28.4916 25.2645 29.4596 24.2965C30.4276 23.3285 30.9715 22.0156 30.9715 20.6466V5.16162Z" fill="url(#paint0_linear_399_5)"/>
<path d="M30.9715 5.16162H0.00146484V20.6466C0.00146484 22.0156 0.545282 23.3285 1.51328 24.2965C2.48128 25.2645 3.79417 25.8083 5.16313 25.8083H25.8098C27.1788 25.8083 28.4916 25.2645 29.4596 24.2965C30.4276 23.3285 30.9715 22.0156 30.9715 20.6466V5.16162Z" fill="url(#paint1_linear_399_5)"/>
<path d="M30.9715 5.16162H0.00146484V20.6466C0.00146484 22.0156 0.545282 23.3285 1.51328 24.2965C2.48128 25.2645 3.79417 25.8083 5.16313 25.8083H25.8098C27.1788 25.8083 28.4916 25.2645 29.4596 24.2965C30.4276 23.3285 30.9715 22.0156 30.9715 20.6466V5.16162Z" fill="url(#paint2_linear_399_5)" fill-opacity="0.75"/>
<path d="M30.9715 5.16162H0.00146484V20.6466C0.00146484 22.0156 0.545282 23.3285 1.51328 24.2965C2.48128 25.2645 3.79417 25.8083 5.16313 25.8083H25.8098C27.1788 25.8083 28.4916 25.2645 29.4596 24.2965C30.4276 23.3285 30.9715 22.0156 30.9715 20.6466V5.16162Z" fill="url(#paint3_linear_399_5)" fill-opacity="0.7"/>
<path d="M5.16313 0C3.79417 0 2.48128 0.543817 1.51328 1.51182C0.545282 2.47982 0.00146484 3.79271 0.00146484 5.16167V7.32957L14.8748 15.3379C15.0628 15.4391 15.273 15.4921 15.4865 15.4921C15.7 15.4921 15.9101 15.4391 16.0981 15.3379L30.9715 7.32957V5.16167C30.9715 3.79271 30.4276 2.47982 29.4596 1.51182C28.4916 0.543817 27.1788 0 25.8098 0H5.16313Z" fill="url(#paint4_linear_399_5)"/>
<path d="M0.00146484 5.16167C0.00146484 3.79271 0.545282 2.47982 1.51328 1.51182C2.48128 0.543817 3.79417 0 5.16313 0H25.8098C27.1788 0 28.4916 0.543817 29.4596 1.51182C30.4276 2.47982 30.9715 3.79271 30.9715 5.16167V20.6467C30.9715 22.0156 30.4276 23.3285 29.4596 24.2965C28.4916 25.2645 27.1788 25.8083 25.8098 25.8083H5.16313C3.79417 25.8083 2.48128 25.2645 1.51328 24.2965C0.545282 23.3285 0.00146484 22.0156 0.00146484 20.6467V5.16167Z" fill="url(#paint5_radial_399_5)" fill-opacity="0.3"/>
<path d="M0.00146484 5.16167C0.00146484 3.79271 0.545282 2.47982 1.51328 1.51182C2.48128 0.543817 3.79417 0 5.16313 0H25.8098C27.1788 0 28.4916 0.543817 29.4596 1.51182C30.4276 2.47982 30.9715 3.79271 30.9715 5.16167V20.6467C30.9715 22.0156 30.4276 23.3285 29.4596 24.2965C28.4916 25.2645 27.1788 25.8083 25.8098 25.8083H5.16313C3.79417 25.8083 2.48128 25.2645 1.51328 24.2965C0.545282 23.3285 0.00146484 22.0156 0.00146484 20.6467V5.16167Z" fill="url(#paint6_radial_399_5)" fill-opacity="0.3"/>
<path d="M0.00146484 5.16167C0.00146484 3.79271 0.545282 2.47982 1.51328 1.51182C2.48128 0.543817 3.79417 0 5.16313 0H25.8098C27.1788 0 28.4916 0.543817 29.4596 1.51182C30.4276 2.47982 30.9715 3.79271 30.9715 5.16167V20.6467C30.9715 22.0156 30.4276 23.3285 29.4596 24.2965C28.4916 25.2645 27.1788 25.8083 25.8098 25.8083H5.16313C3.79417 25.8083 2.48128 25.2645 1.51328 24.2965C0.545282 23.3285 0.00146484 22.0156 0.00146484 20.6467V5.16167Z" fill="url(#paint7_radial_399_5)" fill-opacity="0.3"/>
<path d="M0.00146484 5.16167C0.00146484 3.79271 0.545282 2.47982 1.51328 1.51182C2.48128 0.543817 3.79417 0 5.16313 0H25.8098C27.1788 0 28.4916 0.543817 29.4596 1.51182C30.4276 2.47982 30.9715 3.79271 30.9715 5.16167V20.6467C30.9715 22.0156 30.4276 23.3285 29.4596 24.2965C28.4916 25.2645 27.1788 25.8083 25.8098 25.8083H5.16313C3.79417 25.8083 2.48128 25.2645 1.51328 24.2965C0.545282 23.3285 0.00146484 22.0156 0.00146484 20.6467V5.16167Z" fill="url(#paint8_radial_399_5)" fill-opacity="0.3"/>
<defs>
<linearGradient id="paint0_linear_399_5" x1="19.4171" y1="9.20837" x2="28.4577" y2="25.3283" gradientUnits="userSpaceOnUse">
<stop offset="0.228" stop-color="#0094F0" stop-opacity="0"/>
<stop offset="0.431" stop-color="#0094F0"/>
</linearGradient>
<linearGradient id="paint1_linear_399_5" x1="11.0629" y1="7.33468" x2="1.01831" y2="26.3193" gradientUnits="userSpaceOnUse">
<stop offset="0.228" stop-color="#0094F0" stop-opacity="0"/>
<stop offset="0.431" stop-color="#0094F0"/>
</linearGradient>
<linearGradient id="paint2_linear_399_5" x1="23.6522" y1="17.4799" x2="25.1801" y2="27.682" gradientUnits="userSpaceOnUse">
<stop stop-color="#2764E7" stop-opacity="0"/>
<stop offset="1" stop-color="#2764E7"/>
</linearGradient>
<linearGradient id="paint3_linear_399_5" x1="20.2791" y1="7.696" x2="23.0664" y2="28.4795" gradientUnits="userSpaceOnUse">
<stop offset="0.533" stop-color="#FF6CE8" stop-opacity="0"/>
<stop offset="1" stop-color="#FF6CE8"/>
</linearGradient>
<linearGradient id="paint4_linear_399_5" x1="9.20213" y1="-6.43402" x2="26.6253" y2="25.0986" gradientUnits="userSpaceOnUse">
<stop stop-color="#6CE0FF"/>
<stop offset="0.462" stop-color="#29C3FF"/>
<stop offset="1" stop-color="#4894FE"/>
</linearGradient>
<radialGradient id="paint5_radial_399_5" cx="0" cy="0" r="1" gradientUnits="userSpaceOnUse" gradientTransform="translate(24.1968 8.93485) rotate(90) scale(5.95576 5.69141)">
<stop offset="0.535" stop-color="#4A43CB"/>
<stop offset="1" stop-color="#4A43CB" stop-opacity="0"/>
</radialGradient>
<radialGradient id="paint6_radial_399_5" cx="0" cy="0" r="1" gradientUnits="userSpaceOnUse" gradientTransform="translate(23.229 6.45208) rotate(90) scale(5.16167 12.3396)">
<stop offset="0.5" stop-color="#4A43CB"/>
<stop offset="1" stop-color="#4A43CB" stop-opacity="0"/>
</radialGradient>
<radialGradient id="paint7_radial_399_5" cx="0" cy="0" r="1" gradientUnits="userSpaceOnUse" gradientTransform="translate(16.7769 5.16167) rotate(45) scale(3.64985 3.33618)">
<stop stop-color="#4A43CB"/>
<stop offset="1" stop-color="#4A43CB" stop-opacity="0"/>
</radialGradient>
<radialGradient id="paint8_radial_399_5" cx="0" cy="0" r="1" gradientUnits="userSpaceOnUse" gradientTransform="translate(24.1968 0.993621) rotate(90) scale(9.92627 9.75878)">
<stop offset="0.535" stop-color="#4A43CB"/>
<stop offset="1" stop-color="#4A43CB" stop-opacity="0"/>
</radialGradient>
</defs>
</svg>
