<svg width="31" height="31" viewBox="0 0 31 31" fill="none" xmlns="http://www.w3.org/2000/svg">
<path d="M26.5619 13.2812H0V26.5622C0 27.7363 0.466413 28.8623 1.29663 29.6925C2.12685 30.5228 3.25287 30.9892 4.42698 30.9892H22.1349C23.309 30.9892 24.435 30.5228 25.2652 29.6925C26.0955 28.8623 26.5619 27.7363 26.5619 26.5622V13.2812Z" fill="#367AF2"/>
<path d="M26.5619 13.2812H0V26.5622C0 27.7363 0.466413 28.8623 1.29663 29.6925C2.12685 30.5228 3.25287 30.9892 4.42698 30.9892H22.1349C23.309 30.9892 24.435 30.5228 25.2652 29.6925C26.0955 28.8623 26.5619 27.7363 26.5619 26.5622V13.2812Z" fill="url(#paint0_linear_399_127)"/>
<path d="M26.5619 13.2812H0V26.5622C0 27.7363 0.466413 28.8623 1.29663 29.6925C2.12685 30.5228 3.25287 30.9892 4.42698 30.9892H22.1349C23.309 30.9892 24.435 30.5228 25.2652 29.6925C26.0955 28.8623 26.5619 27.7363 26.5619 26.5622V13.2812Z" fill="url(#paint1_linear_399_127)"/>
<path d="M26.5619 13.2812H0V26.5622C0 27.7363 0.466413 28.8623 1.29663 29.6925C2.12685 30.5228 3.25287 30.9892 4.42698 30.9892H22.1349C23.309 30.9892 24.435 30.5228 25.2652 29.6925C26.0955 28.8623 26.5619 27.7363 26.5619 26.5622V13.2812Z" fill="url(#paint2_linear_399_127)" fill-opacity="0.75"/>
<path d="M26.5619 13.2812H0V26.5622C0 27.7363 0.466413 28.8623 1.29663 29.6925C2.12685 30.5228 3.25287 30.9892 4.42698 30.9892H22.1349C23.309 30.9892 24.435 30.5228 25.2652 29.6925C26.0955 28.8623 26.5619 27.7363 26.5619 26.5622V13.2812Z" fill="url(#paint3_linear_399_127)" fill-opacity="0.7"/>
<path d="M4.42698 8.854C3.25287 8.854 2.12685 9.32042 1.29663 10.1506C0.466413 10.9809 0 12.1069 0 13.281V15.1403L12.7563 22.0088C12.9176 22.0956 13.0978 22.141 13.2809 22.141C13.464 22.141 13.6443 22.0956 13.8055 22.0088L26.5619 15.1403V13.281C26.5619 12.1069 26.0955 10.9809 25.2652 10.1506C24.435 9.32042 23.309 8.854 22.1349 8.854H4.42698Z" fill="url(#paint4_linear_399_127)"/>
<path d="M0 13.281C0 12.1069 0.466413 10.9809 1.29663 10.1506C2.12685 9.32042 3.25287 8.854 4.42698 8.854H22.1349C23.309 8.854 24.435 9.32042 25.2652 10.1506C26.0955 10.9809 26.5619 12.1069 26.5619 13.281V26.5619C26.5619 27.736 26.0955 28.862 25.2652 29.6923C24.435 30.5225 23.309 30.9889 22.1349 30.9889H4.42698C3.25287 30.9889 2.12685 30.5225 1.29663 29.6923C0.466413 28.862 0 27.736 0 26.5619V13.281Z" fill="url(#paint5_radial_399_127)" fill-opacity="0.3"/>
<path d="M0 13.281C0 12.1069 0.466413 10.9809 1.29663 10.1506C2.12685 9.32042 3.25287 8.854 4.42698 8.854H22.1349C23.309 8.854 24.435 9.32042 25.2652 10.1506C26.0955 10.9809 26.5619 12.1069 26.5619 13.281V26.5619C26.5619 27.736 26.0955 28.862 25.2652 29.6923C24.435 30.5225 23.309 30.9889 22.1349 30.9889H4.42698C3.25287 30.9889 2.12685 30.5225 1.29663 29.6923C0.466413 28.862 0 27.736 0 26.5619V13.281Z" fill="url(#paint6_radial_399_127)" fill-opacity="0.3"/>
<path d="M0 13.281C0 12.1069 0.466413 10.9809 1.29663 10.1506C2.12685 9.32042 3.25287 8.854 4.42698 8.854H22.1349C23.309 8.854 24.435 9.32042 25.2652 10.1506C26.0955 10.9809 26.5619 12.1069 26.5619 13.281V26.5619C26.5619 27.736 26.0955 28.862 25.2652 29.6923C24.435 30.5225 23.309 30.9889 22.1349 30.9889H4.42698C3.25287 30.9889 2.12685 30.5225 1.29663 29.6923C0.466413 28.862 0 27.736 0 26.5619V13.281Z" fill="url(#paint7_radial_399_127)" fill-opacity="0.3"/>
<path d="M0 13.281C0 12.1069 0.466413 10.9809 1.29663 10.1506C2.12685 9.32042 3.25287 8.854 4.42698 8.854H22.1349C23.309 8.854 24.435 9.32042 25.2652 10.1506C26.0955 10.9809 26.5619 12.1069 26.5619 13.281V26.5619C26.5619 27.736 26.0955 28.862 25.2652 29.6923C24.435 30.5225 23.309 30.9889 22.1349 30.9889H4.42698C3.25287 30.9889 2.12685 30.5225 1.29663 29.6923C0.466413 28.862 0 27.736 0 26.5619V13.281Z" fill="url(#paint8_radial_399_127)" fill-opacity="0.3"/>
<path d="M25.4548 15.4944C25.4548 16.6685 24.9884 17.7945 24.1582 18.6247C23.3279 19.4549 22.2019 19.9213 21.0278 19.9213C19.8537 19.9213 18.7277 19.4549 17.8975 18.6247C17.0672 17.7945 16.6008 16.6685 16.6008 15.4944C16.6008 14.3203 17.0672 13.1942 17.8975 12.364C18.7277 11.5338 19.8537 11.0674 21.0278 11.0674C22.2019 11.0674 23.3279 11.5338 24.1582 12.364C24.9884 13.1942 25.4548 14.3203 25.4548 15.4944Z" fill="url(#paint9_linear_399_127)"/>
<path d="M14.3804 6.64047C14.3804 4.87931 15.0801 3.19028 16.3254 1.94495C17.5707 0.699619 19.2597 0 21.0209 0C22.7821 0 24.4711 0.699619 25.7164 1.94495C26.9618 3.19028 27.6614 4.87931 27.6614 6.64047V11.0674L30.5832 13.5443C30.7557 13.6909 30.8791 13.8869 30.9367 14.1058C30.9944 14.3248 30.9835 14.5561 30.9056 14.7686C30.8277 14.9812 30.6864 15.1647 30.5009 15.2945C30.3154 15.4243 30.0946 15.4941 29.8682 15.4944H12.1758C11.9494 15.4941 11.7286 15.4243 11.5431 15.2945C11.3576 15.1647 11.2164 14.9812 11.1384 14.7686C11.0605 14.5561 11.0496 14.3248 11.1073 14.1058C11.1649 13.8869 11.2883 13.6909 11.4608 13.5443L14.3827 11.0674L14.3804 6.64047Z" fill="url(#paint10_linear_399_127)"/>
<defs>
<linearGradient id="paint0_linear_399_127" x1="16.6521" y1="16.752" x2="24.4059" y2="30.5775" gradientUnits="userSpaceOnUse">
<stop offset="0.228" stop-color="#0094F0" stop-opacity="0"/>
<stop offset="0.431" stop-color="#0094F0"/>
</linearGradient>
<linearGradient id="paint1_linear_399_127" x1="9.48701" y1="15.145" x2="0.872115" y2="31.4274" gradientUnits="userSpaceOnUse">
<stop offset="0.228" stop-color="#0094F0" stop-opacity="0"/>
<stop offset="0.431" stop-color="#0094F0"/>
</linearGradient>
<linearGradient id="paint2_linear_399_127" x1="20.2844" y1="23.8462" x2="21.5948" y2="32.5962" gradientUnits="userSpaceOnUse">
<stop stop-color="#2764E7" stop-opacity="0"/>
<stop offset="1" stop-color="#2764E7"/>
</linearGradient>
<linearGradient id="paint3_linear_399_127" x1="17.3914" y1="15.4549" x2="19.782" y2="33.2801" gradientUnits="userSpaceOnUse">
<stop offset="0.533" stop-color="#FF6CE8" stop-opacity="0"/>
<stop offset="1" stop-color="#FF6CE8"/>
</linearGradient>
<linearGradient id="paint4_linear_399_127" x1="7.89109" y1="3.33577" x2="22.8344" y2="30.3802" gradientUnits="userSpaceOnUse">
<stop stop-color="#6CE0FF"/>
<stop offset="0.462" stop-color="#29C3FF"/>
<stop offset="1" stop-color="#4894FE"/>
</linearGradient>
<radialGradient id="paint5_radial_399_127" cx="0" cy="0" r="1" gradientUnits="userSpaceOnUse" gradientTransform="translate(20.7515 16.5171) rotate(90) scale(5.10805 4.88132)">
<stop offset="0.535" stop-color="#4A43CB"/>
<stop offset="1" stop-color="#4A43CB" stop-opacity="0"/>
</radialGradient>
<radialGradient id="paint6_radial_399_127" cx="0" cy="0" r="1" gradientUnits="userSpaceOnUse" gradientTransform="translate(19.9214 14.3877) rotate(90) scale(4.42698 10.5832)">
<stop offset="0.5" stop-color="#4A43CB"/>
<stop offset="1" stop-color="#4A43CB" stop-opacity="0"/>
</radialGradient>
<radialGradient id="paint7_radial_399_127" cx="0" cy="0" r="1" gradientUnits="userSpaceOnUse" gradientTransform="translate(14.3877 13.281) rotate(45) scale(3.13035 2.86132)">
<stop stop-color="#4A43CB"/>
<stop offset="1" stop-color="#4A43CB" stop-opacity="0"/>
</radialGradient>
<radialGradient id="paint8_radial_399_127" cx="0" cy="0" r="1" gradientUnits="userSpaceOnUse" gradientTransform="translate(20.7515 9.7062) rotate(90) scale(8.51341 8.36976)">
<stop offset="0.535" stop-color="#4A43CB"/>
<stop offset="1" stop-color="#4A43CB" stop-opacity="0"/>
</radialGradient>
<linearGradient id="paint9_linear_399_127" x1="21.0566" y1="14.7551" x2="21.0566" y2="19.9213" gradientUnits="userSpaceOnUse">
<stop stop-color="#EB4824"/>
<stop offset="1" stop-color="#FFCD0F" stop-opacity="0.988"/>
</linearGradient>
<linearGradient id="paint10_linear_399_127" x1="31.006" y1="15.4878" x2="16.0096" y2="-0.274473" gradientUnits="userSpaceOnUse">
<stop stop-color="#FF6F47"/>
<stop offset="1" stop-color="#FFCD0F"/>
</linearGradient>
</defs>
</svg>
